<svg width="337" height="337" viewBox="0 0 337 337" fill="none" xmlns="http://www.w3.org/2000/svg">
<path fill-rule="evenodd" clip-rule="evenodd" d="M23.155 112.598C-7.71801 143.472 -7.71801 193.528 23.155 224.402L112.598 313.845C143.472 344.718 193.528 344.718 224.402 313.845L313.845 224.402C344.718 193.528 344.718 143.472 313.845 112.598L224.402 23.155C193.528 -7.71801 143.472 -7.71801 112.598 23.155L23.155 112.598ZM207.631 207.631C229.243 186.02 229.243 150.98 207.631 129.369C186.02 107.757 150.98 107.757 129.369 129.369C107.757 150.98 107.757 186.02 129.369 207.631C150.98 229.243 186.02 229.243 207.631 207.631Z" fill="#D2D2D2"/>
</svg>
