<svg xmlns="http://www.w3.org/2000/svg" viewBox="0 0 100 100" id="Ink"><path d="M29 17c0 1.1-.9 2-2 2s-2-.9-2-2 .9-2 2-2 2 .9 2 2zm31 42H35c-1.1 0-2 .9-2 2s.9 2 2 2h25c1.1 0 2-.9 2-2s-.9-2-2-2zm0-10H35c-1.1 0-2 .9-2 2s.9 2 2 2h25c1.1 0 2-.9 2-2s-.9-2-2-2zm0-10H35c-1.1 0-2 .9-2 2s.9 2 2 2h25c1.1 0 2-.9 2-2s-.9-2-2-2zm0-10H35c-1.1 0-2 .9-2 2s.9 2 2 2h25c1.1 0 2-.9 2-2s-.9-2-2-2zm0-10H35c-1.1 0-2 .9-2 2s.9 2 2 2h25c1.1 0 2-.9 2-2s-.9-2-2-2zm35 68v6c0 1.1-.9 2-2 2H21c-2.6 0-4.8-1.7-5.7-4H12c-3.9 0-7-3.1-7-7s3.1-7 7-7h3V19h-3c-3.9 0-7-3.1-7-7s3.1-7 7-7h67c6.1 0 11 4.9 11 11v30.4c0 2.8-1 5.5-2.7 7.6L81 61.7V69h3c1.1 0 2 .9 2 2v8h1c4.4 0 8 3.6 8 8zm-80-6h-3c-1.7 0-3 1.3-3 3 0 1.6 1.3 3 3 3h3v-6zm0-72h-3c-1.7 0-3 1.3-3 3 0 1.6 1.3 3 3 3h3V9zm57 37.4c0 1.8.6 3.6 1.8 5.1l5.2 6.3 5.2-6.3c1.2-1.4 1.8-3.2 1.8-5.1V16c0-3.9-3.1-7-7-7s-7 3.1-7 7v30.4zM19 73h53v-2c0-1.1.9-2 2-2h3v-7.3L70.7 54C69 51.9 68 49.2 68 46.4V16c0-2.7 1-5.1 2.5-7H19v64zm52 6h1v-2H19v12c0 1.1.9 2 2 2h42v-4c0-4.4 3.6-8 8-8zm20 8c0-2.2-1.8-4-4-4h-3c-1.1 0-2-.9-2-2v-8h-6v8c0 1.1-.9 2-2 2h-3c-2.2 0-4 1.8-4 4v4h24v-4z" fill="#9ca3af" class="color000000 svgShape"></path></svg>